<svg width="41" height="45" viewBox="0 0 41 45" fill="none" xmlns="http://www.w3.org/2000/svg">
<path d="M4.28682 32.7809C5.72675 31.2643 7.19965 29.7246 8.67256 28.185C9.63984 27.1739 10.816 26.6913 12.179 26.6913C14.7071 26.6913 17.2352 26.6913 19.7633 26.6913C21.5 26.6913 23.2477 26.6798 24.9844 26.6913C26.3254 26.7028 27.3587 27.5531 27.5675 28.794C27.8533 30.5174 26.7102 31.9192 24.9844 31.9307C22.5443 31.9422 20.1151 31.9307 17.6749 31.9307C17.51 31.9307 17.3231 31.8847 17.1912 31.9537C17.0154 32.0341 16.8835 32.2064 16.7406 32.3443C16.8835 32.4822 17.0264 32.6431 17.1912 32.735C17.2902 32.7924 17.444 32.7465 17.5759 32.7465C20.3459 32.7465 23.1048 32.7235 25.8748 32.758C26.5892 32.7694 27.1718 32.5741 27.7544 32.149C30.8321 29.92 33.9428 27.7254 37.0425 25.5079C37.669 25.0598 38.3505 24.9104 39.076 25.0827C40.0872 25.324 40.7467 26.0249 40.9446 27.0935C41.1534 28.2309 40.7687 29.1616 39.8454 29.828C36.4929 32.2179 33.1404 34.6193 29.7769 36.9977C29.0404 37.5262 28.238 37.9169 27.3477 37.9284C24.7316 37.9629 22.1156 37.9743 19.5105 37.9743C18.1585 37.9743 16.8065 37.9284 15.4545 37.9514C15.2347 37.9514 14.9709 38.1122 14.806 38.2731C13.9157 39.1808 13.0583 40.1229 12.135 41.1111C9.47496 38.2961 6.88089 35.5385 4.28682 32.7809ZM12.2229 43.6618C11.5414 44.0295 10.772 44.4316 10.0355 44.8797C9.6948 45.0866 9.50794 45.0176 9.24413 44.7419C7.28759 42.6737 5.32005 40.6285 3.35251 38.5718C2.20936 37.3884 1.06621 36.2049 0 35.0904C0.703477 34.3436 1.38497 33.6312 2.14341 32.8154C5.48493 36.4002 8.83744 40.0195 12.2229 43.6618ZM28.282 27.9897C29.4581 27.1394 30.6562 26.2662 31.8763 25.4274C32.9205 24.7036 34.2945 24.9219 35.064 25.91C32.7667 27.5416 30.4804 29.1731 28.282 30.7472C28.282 29.851 28.282 28.9548 28.282 27.9897ZM27.8863 27.2658C27.3917 26.8522 26.952 26.473 26.5123 26.1053C28.0072 24.8529 29.3702 24.6576 30.2275 25.5998C29.4361 26.1513 28.6667 26.7143 27.8863 27.2658ZM26.1496 25.2781C25.2482 26.2432 24.204 25.7147 23.2477 25.8181C24.0941 25.0253 25.0284 24.784 26.1496 25.2781Z" fill="#E5097F"/>
<path d="M4.28682 32.7809C6.88089 35.55 9.47496 38.2961 12.124 41.1226C13.0473 40.1344 13.9047 39.1923 14.795 38.2846C14.9599 38.1122 15.2237 37.9629 15.4435 37.9629C16.7955 37.9514 18.1475 37.9858 19.4995 37.9858C22.1156 37.9858 24.7316 37.9743 27.3367 37.9399C28.238 37.9284 29.0404 37.5262 29.7659 37.0092C33.1294 34.6078 36.4819 32.2179 39.8454 29.828C40.7687 29.1616 41.1534 28.2195 40.9446 27.0935C40.7467 26.0249 40.0872 25.324 39.065 25.0827C38.3395 24.9104 37.658 25.0598 37.0315 25.5079C33.9318 27.7254 30.8321 29.92 27.7434 32.149C27.1608 32.5741 26.5783 32.7694 25.8638 32.758C23.0938 32.7235 20.3349 32.7465 17.565 32.7465C17.4331 32.7465 17.2792 32.7924 17.1802 32.735C17.0154 32.6431 16.8835 32.4822 16.7296 32.3443C16.8835 32.2064 17.0044 32.0341 17.1802 31.9537C17.3121 31.8847 17.499 31.9307 17.6639 31.9307C20.1041 31.9307 22.5333 31.9422 24.9734 31.9307C26.7102 31.9077 27.8533 30.5174 27.5675 28.7825C27.3587 27.5416 26.3364 26.6913 24.9844 26.6798C23.2477 26.6683 21.5 26.6798 19.7633 26.6798C17.2352 26.6798 14.7071 26.6798 12.179 26.6798C10.816 26.6798 9.63984 27.1624 8.67256 28.1735C7.19965 29.7246 5.72675 31.2643 4.28682 32.7809Z" fill="#E5097F"/>
<path d="M12.2229 43.6618C8.83744 40.0195 5.47393 36.4002 2.1544 32.8154C1.38497 33.6312 0.71447 34.3436 0.0109925 35.0904C1.0772 36.1934 2.22035 37.3769 3.3635 38.5718C5.33104 40.6285 7.29858 42.6737 9.25513 44.7419C9.51893 45.0176 9.70579 45.0866 10.0465 44.8797C10.772 44.4316 11.5524 44.041 12.2229 43.6618Z" fill="#E5097F"/>
<path d="M28.282 27.9897C28.282 28.9548 28.282 29.851 28.282 30.7472C30.4804 29.1731 32.7667 27.5416 35.064 25.91C34.2945 24.9219 32.9205 24.7151 31.8763 25.4274C30.6562 26.2662 29.4581 27.1394 28.282 27.9897Z" fill="#E5097F"/>
<path d="M27.8863 27.2658C28.6557 26.7143 29.4361 26.1513 30.2166 25.5998C29.3592 24.6691 27.9962 24.8644 26.5013 26.1053C26.952 26.473 27.3917 26.8522 27.8863 27.2658Z" fill="#E5097F"/>
<path d="M26.1496 25.2781C25.0394 24.784 24.0941 25.0253 23.2477 25.8181C24.193 25.7147 25.2373 26.2432 26.1496 25.2781Z" fill="#E5097F"/>
<path d="M9.59277 14.9704C9.06346 14.9704 8.56237 14.9704 8.04012 14.9704C8.04012 15.0445 8.04012 15.1112 8.04012 15.1779C8.04012 16.2266 8.03659 17.2789 8.04364 18.3276C8.04717 18.5499 7.87074 18.8612 7.61314 18.8834C7.39435 18.902 7.16851 18.8908 6.94973 18.8612C6.68508 18.8278 6.57921 18.6166 6.56157 18.3832C6.55804 18.335 6.56157 18.2831 6.56157 18.235C6.56157 14.9074 6.56157 11.5798 6.56157 8.25224C6.56157 7.71493 6.56157 7.17763 6.56157 6.64033C6.56157 6.45505 6.58274 6.26977 6.74859 6.15861C6.83328 6.10302 6.93209 6.04744 7.02736 6.04373C7.26026 6.03632 7.49316 6.04744 7.72253 6.08079C7.88838 6.10302 8.04012 6.36612 8.04012 6.57363C8.04012 7.6297 8.04012 8.68578 8.04012 9.74186C8.04012 9.80856 8.04012 9.87526 8.04012 9.95308C8.55884 9.95308 9.06698 9.95308 9.59277 9.95308C9.59277 9.41207 9.57865 8.87477 9.5963 8.34117C9.61041 7.94097 9.7198 7.5593 10.0197 7.27397C10.2244 7.07758 10.4573 6.94789 10.7502 6.959C11.1419 6.97012 11.5371 6.96271 11.9464 6.96271C11.95 6.88119 11.957 6.81819 11.957 6.75149C11.957 6.31794 11.95 5.8881 11.9606 5.45455C11.9712 5.09512 12.0311 4.7505 12.3064 4.48741C12.5358 4.26508 12.7934 4.11685 13.1039 4.11315C14.3213 4.10574 15.5387 4.10944 16.7561 4.10944C16.8197 4.10944 16.8832 4.10944 16.9573 4.10944C16.9573 3.33869 16.9573 2.58647 16.9573 1.81201C16.8867 1.81201 16.8232 1.81201 16.7597 1.81201C15.6234 1.81201 14.4907 1.81201 13.3544 1.81201C13.0015 1.81201 12.751 1.61562 12.7051 1.25618C12.6734 1.02643 12.6734 0.785574 12.7051 0.555831C12.751 0.203805 12.9874 0.0333499 13.3191 0.0333499C14.3319 0.0333499 15.3411 0.0333499 16.3539 0.0333499C17.8289 0.0333499 19.3039 0.0370554 20.7825 0.0333499C21.2941 0.0333499 21.8023 0 22.3139 0C23.5702 0.00370554 24.8264 0.0259388 26.0826 0.0333499C26.432 0.0333499 26.7108 0.34091 26.6755 0.670703C26.6578 0.833746 26.6508 1.00791 26.6755 1.17095C26.7249 1.50445 26.3438 1.81942 26.0544 1.81571C24.897 1.8083 23.736 1.81201 22.5786 1.81201C22.5151 1.81201 22.4516 1.81201 22.3774 1.81201C22.3774 2.57906 22.3774 3.33499 22.3774 4.10944C22.441 4.10944 22.4974 4.10944 22.5539 4.10944C23.8172 4.10944 25.084 4.10944 26.3473 4.10944C26.4637 4.10944 26.5414 4.08721 26.6225 3.97234C26.8378 3.66478 27.3283 3.66848 27.5612 3.92417C28.207 4.62081 28.8739 5.29522 29.5302 5.98074C29.8937 6.36241 30.2572 6.74408 30.6206 7.12575C30.6453 7.15169 30.6806 7.18133 30.7124 7.18133C31.1817 7.18504 31.651 7.18504 32.145 7.18504C32.145 7.06646 32.1486 6.9553 32.145 6.84784C32.1345 6.39947 32.4591 6.04003 32.9073 6.03632C33.7083 6.03262 34.5058 6.02891 35.3068 6.03632C35.7655 6.04003 36.0655 6.37353 36.0655 6.85525C36.062 8.93035 36.0655 11.0055 36.0655 13.0768C36.0655 14.9037 36.0655 16.7268 36.0655 18.5536C36.0655 18.8278 36.069 19.1058 36.0796 19.38C36.0937 19.7616 35.7267 20.1841 35.3492 20.1841C34.5234 20.1878 33.6977 20.1841 32.872 20.1878C32.632 20.1878 32.2544 19.9432 32.2192 19.6838C32.198 19.5319 32.1592 19.38 32.1521 19.2243C32.1415 18.939 32.145 18.6574 32.1521 18.3721C32.1556 18.2609 32.1203 18.2127 32.011 18.2201C31.8698 18.2275 31.7287 18.2201 31.5875 18.2201C31.4534 18.2201 31.3193 18.2201 31.1641 18.2201C31.1641 18.4128 31.1641 18.5944 31.1641 18.776C31.1641 19.2836 31.1605 19.7876 31.1641 20.2952C31.1711 20.777 30.6912 21.3773 30.2148 21.4069C29.9149 21.4254 29.6114 21.4625 29.3115 21.4625C26.6472 21.4662 23.9866 21.4625 21.3224 21.4625C19.8438 21.4625 18.3617 21.4588 16.8832 21.4588C16.8091 21.4588 16.7209 21.4662 16.6644 21.507C16.2833 21.7663 15.9763 21.6959 15.6869 21.3958C14.9106 20.588 14.1413 19.7728 13.365 18.9612C13.0757 18.6574 12.7898 18.3535 12.4969 18.0534C12.444 18.0015 12.3558 17.9645 12.2852 17.9645C11.763 17.957 11.2372 17.9682 10.7149 17.957C10.2773 17.9496 9.98446 17.6828 9.78685 17.3049C9.64217 17.027 9.60336 16.7194 9.60688 16.4044C9.5963 15.9338 9.59277 15.4595 9.59277 14.9704ZM25.7686 15.5966C25.9168 15.2853 26.0721 15 26.192 14.6999C26.3085 14.4145 26.3932 14.1144 26.4779 13.8142C26.492 13.7661 26.432 13.6623 26.3826 13.6364C26.252 13.5697 26.1003 13.5437 25.9733 13.4733C25.8744 13.4178 25.7121 13.4326 25.7157 13.2399C25.7227 12.8805 25.7121 12.5247 25.7227 12.1653C25.7262 12.1023 25.7933 12.0208 25.8497 11.9911C26.0579 11.8911 26.2767 11.8096 26.4955 11.7169C26.3473 11.0351 26.1144 10.3977 25.7333 9.81597C25.5216 9.91232 25.3134 10.0161 25.0981 10.1013C25.0417 10.1235 24.9429 10.1235 24.904 10.0865C24.6429 9.82709 24.3924 9.56029 24.1418 9.28979C24.1136 9.26014 24.1065 9.17862 24.1242 9.13786C24.2124 8.897 24.3147 8.65985 24.4206 8.39675C24.1101 8.24112 23.8278 8.07808 23.5314 7.95209C23.2279 7.82239 22.9138 7.72234 22.6033 7.60747C22.5115 7.86315 22.4339 8.0966 22.3386 8.31894C22.3139 8.37822 22.2222 8.43751 22.1587 8.44122C21.8234 8.45234 21.4882 8.45234 21.153 8.44122C21.0965 8.43751 21.0189 8.3634 20.9906 8.30411C20.906 8.11884 20.846 7.92615 20.7719 7.73717C20.7401 7.65564 20.6872 7.60747 20.5954 7.67047C20.5637 7.6927 20.5213 7.6964 20.4825 7.70752C19.9708 7.84092 19.4874 8.04473 19.0463 8.34858C18.9404 8.42269 18.9369 8.48198 18.9793 8.58203C19.0392 8.71913 19.0957 8.85624 19.1522 8.99334C19.2122 9.13415 19.2404 9.25644 19.0957 9.38613C18.8558 9.60476 18.644 9.86044 18.4147 10.0902C18.3794 10.1272 18.2982 10.1495 18.2559 10.1309C18.0759 10.0494 17.9065 9.94196 17.723 9.86785C17.6666 9.84562 17.5431 9.88267 17.5148 9.93455C17.3807 10.1643 17.2537 10.4014 17.1514 10.6497C17.0384 10.9239 16.9538 11.2093 16.8726 11.4946C16.8408 11.6095 16.8091 11.7429 16.9996 11.7873C17.1655 11.8244 17.3243 11.9059 17.476 11.9837C17.5289 12.0097 17.5925 12.0912 17.5925 12.1505C17.603 12.521 17.5995 12.8916 17.596 13.2621C17.596 13.3103 17.5748 13.3844 17.5395 13.4029C17.3701 13.4845 17.1937 13.5586 17.0173 13.6216C16.8408 13.6846 16.8055 13.7698 16.8938 13.9514C16.9044 13.9736 16.9185 13.9921 16.922 14.0181C17.0067 14.5405 17.2502 14.9963 17.4901 15.4521C17.5431 15.5521 17.6066 15.5892 17.7195 15.5336C17.8783 15.4521 18.0441 15.3854 18.21 15.3113C18.3017 15.2705 18.3723 15.2742 18.4535 15.3632C18.6828 15.6114 18.9263 15.8449 19.1557 16.0895C19.191 16.1302 19.2051 16.2266 19.1875 16.2784C19.131 16.4452 19.0569 16.6045 18.9828 16.7639C18.9052 16.9269 18.9263 17.0195 19.0816 17.1011C19.4204 17.2752 19.7556 17.4605 20.1014 17.6087C20.3025 17.6939 20.5284 17.7236 20.726 17.7718C20.8283 17.4976 20.9165 17.2604 21.0118 17.0307C21.0259 16.9973 21.093 16.9714 21.1353 16.9714C21.4811 16.9677 21.8305 16.964 22.1763 16.9751C22.2328 16.9751 22.3175 17.0344 22.3422 17.0899C22.4339 17.3049 22.508 17.5272 22.5927 17.7644C23.2632 17.6495 23.8525 17.3605 24.4065 16.9899C24.3147 16.7527 24.2406 16.5193 24.1312 16.3044C24.0854 16.2117 24.0889 16.1673 24.1524 16.1043C24.3888 15.8634 24.6217 15.6188 24.8511 15.3706C24.9252 15.2891 25.0064 15.2742 25.0981 15.315C25.3134 15.3928 25.5216 15.4892 25.7686 15.5966Z" fill="#E5097F"/>
<path d="M21.6788 14.0773C20.9483 14.1515 20.4155 13.4733 20.3555 12.9546C20.299 12.484 20.3872 12.0504 20.7225 11.7132C20.9377 11.4983 21.1812 11.3167 21.4988 11.2945C22.4198 11.2241 22.9103 11.8874 22.9985 12.5692C23.0973 13.314 22.448 14.1626 21.6788 14.0773Z" fill="#E5097F"/>
</svg>
