<svg width="44" height="44" viewBox="0 0 44 44" fill="none" xmlns="http://www.w3.org/2000/svg">
<path d="M4.06264 16.0914C4.06264 16.8555 4.07749 17.4874 4.06264 18.1046C4.04778 19.0598 3.61701 19.4713 2.65148 19.5007C2.17615 19.5154 1.71566 19.5154 1.24033 19.5007C0.467909 19.4566 0.0371356 19.0598 0.0222814 18.2956C-0.00742712 16.5763 -0.00742712 14.8716 0.0222814 13.1523C0.0371356 12.3734 0.512471 11.9473 1.29975 11.9179C1.81964 11.9032 2.33954 11.9032 2.85944 11.9179C3.54274 11.9473 4.12205 12.3441 4.01807 12.9906C3.81011 14.3132 4.6271 14.7394 5.59262 15.1362C5.88971 15.2537 6.17194 15.4007 6.51359 15.5623C6.87009 13.5491 7.19688 11.5946 7.53853 9.65481C8.01386 6.93618 8.4892 4.20286 8.97939 1.48423C9.18735 0.308601 9.57356 0 10.7768 0C18.4267 0 26.0766 0 33.7266 0C34.7812 0 35.1971 0.308601 35.3754 1.38136C36.1775 6.11325 36.9499 10.8451 37.7224 15.577C37.7521 15.724 37.7669 15.8562 37.8263 16.1207C38.4948 15.7974 39.1038 15.5182 39.698 15.1949C39.8317 15.1215 39.9208 14.8276 39.9208 14.6365C39.9505 14.1516 39.9208 13.6519 39.9356 13.167C39.9505 12.4322 40.3961 11.9767 41.1091 11.9032C41.1388 11.9032 41.1537 11.9032 41.1834 11.9032C43.5452 11.8885 44.08 11.7268 43.9908 14.4455C43.9463 15.6652 43.9908 16.8996 43.976 18.1193C43.9611 19.0745 43.5304 19.5007 42.5648 19.5154C42.1192 19.5301 41.6736 19.5301 41.228 19.5154C40.3813 19.486 39.9653 19.0598 39.9356 18.2369C39.9208 17.8254 39.9356 17.4139 39.9356 16.8261C39.2969 17.1494 38.7473 17.3845 38.2274 17.6931C38.0937 17.7666 38.0343 18.0605 38.064 18.2516C38.5393 22.6895 38.6433 27.1275 38.6285 31.5949C38.6136 33.9314 37.7818 36.0035 36.9351 38.0755C36.6083 38.8838 35.8359 39.1336 34.9743 39.1336C32.9987 39.1189 31.0082 39.1336 29.0326 39.1336C22.5413 39.1336 16.0649 39.1336 9.57356 39.1336C7.9693 39.1336 7.6128 38.7515 6.9295 37.3114C5.28068 33.8874 5.5035 30.2576 5.62233 26.6426C5.71146 23.6888 6.00854 20.7351 6.24621 17.7813C6.29077 17.3111 6.15708 17.0612 5.71146 16.8996C5.19156 16.6645 4.70137 16.3853 4.06264 16.0914ZM22.1848 20.1179C26.6411 20.1179 31.0974 20.1179 35.5536 20.1179C36.6826 20.1179 37.0539 19.7211 36.9054 18.6483C36.4597 15.6505 35.9993 12.6527 35.5388 9.65481C35.4051 8.78779 35.1229 8.56736 34.2613 8.56736C26.1955 8.56736 18.1296 8.56736 10.0489 8.56736C9.2022 8.56736 8.90512 8.81718 8.77143 9.66951C8.29609 12.6233 7.83561 15.5623 7.37513 18.5161C7.18203 19.7652 7.49397 20.1326 8.77143 20.1326C13.2277 20.1179 17.6988 20.1179 22.1848 20.1179ZM31.0974 33.8139C32.5085 33.6375 34.0088 33.52 35.4645 33.2408C36.7568 32.9909 37.5144 32.0798 37.6926 30.8013C37.7966 30.0813 37.7521 29.3465 37.7372 28.6117C37.7075 27.3333 36.534 26.672 35.4051 27.2745C34.5584 27.7153 33.7117 28.1562 32.865 28.6117C32.3303 28.9057 31.8846 29.2436 32.1372 29.9931C32.2263 30.2723 32.1669 30.6397 32.0777 30.9336C31.7807 31.8741 31.439 32.8293 31.0974 33.8139ZM13.4505 33.7845C12.2919 32.3737 11.8314 30.9042 11.8314 29.2877C11.8314 29.1114 11.6234 28.8616 11.46 28.7587C10.5688 28.2444 9.64783 27.7741 8.74172 27.2892C7.62765 26.7161 6.42446 27.4067 6.39475 28.6411C6.3799 29.273 6.36504 29.9196 6.40961 30.5515C6.49873 31.9623 7.46426 33.0938 8.86056 33.2995C10.3163 33.5053 11.8017 33.6082 13.4505 33.7845ZM13.1089 30.4046C14.7725 30.4046 16.3619 30.4046 17.9662 30.4046C19.7636 30.4046 21.5609 30.3752 23.3731 30.3752C25.6756 30.3752 27.9631 30.4046 30.2655 30.4046C31.0231 30.4046 31.1122 30.2282 30.9191 29.3612C24.9923 29.3612 19.0506 29.3612 13.0495 29.3612C13.0495 29.6698 13.0792 29.9343 13.1089 30.4046ZM30.5775 31.6243C24.8437 31.6243 19.1991 31.6243 13.5099 31.6243C13.6733 32.2856 13.9259 32.6236 14.6686 32.6236C19.5853 32.5942 24.5021 32.5942 29.4337 32.6236C30.1467 32.6236 30.4289 32.3003 30.5775 31.6243ZM15.337 33.8286C18.085 35.7978 26.8342 35.739 28.5573 33.8286C24.1901 33.8286 19.8527 33.8286 15.337 33.8286Z" fill="#E5097F"/>
<path d="M32.8502 40.3533C34.2167 40.1329 35.6428 40.5884 36.9202 39.7802C38.1977 38.9866 38.3017 37.5465 38.985 36.2386C38.985 38.34 39.0147 40.2651 38.9701 42.1902C38.9552 43.263 38.2125 43.9536 37.1133 43.983C36.2666 43.9977 35.4348 44.0124 34.5881 43.983C33.6671 43.9536 32.9393 43.3658 32.8502 42.4841C32.7907 41.7934 32.8502 41.0881 32.8502 40.3533Z" fill="#E5097F"/>
<path d="M11.5789 40.3092C11.5789 41.0881 11.6234 41.7934 11.564 42.4841C11.5046 43.263 10.7619 43.9389 9.95977 43.9683C8.99424 44.0124 8.02872 43.9977 7.06319 43.9536C6.17194 43.9096 5.47379 43.2483 5.44408 42.3372C5.39952 40.6325 5.42923 38.9132 5.56291 37.1644C5.6966 37.5024 5.83029 37.8551 5.96398 38.1931C6.51359 39.5304 7.58309 40.2651 9.05366 40.2945C9.8855 40.3092 10.7025 40.3092 11.5789 40.3092Z" fill="#E5097F"/>
</svg>
