<svg display="none" xmlns="http://www.w3.org/2000/svg">
    <symbol id="android" viewBox="0 0 576 512">
        <g>
            <path d="M420.55,301.93a24,24,0,1,1,24-24,24,24,0,0,1-24,24m-265.1,0a24,24,0,1,1,24-24,24,24,0,0,1-24,24m273.7-144.48,47.94-83a10,10,0,1,0-17.27-10h0l-48.54,84.07a301.25,301.25,0,0,0-246.56,0L116.18,64.45a10,10,0,1,0-17.27,10h0l47.94,83C64.53,202.22,8.24,285.55,0,384H576c-8.24-98.45-64.54-181.78-146.85-226.55"/>
        </g>
    </symbol>
    <symbol viewBox="0 0 32 53" id="cases_order">
        <g>
            <svg xmlns="http://www.w3.org/2000/svg" width="32" height="53" viewBox="0 0 32 53">
                <path d="M22.7602 30.9212C21.1695 30.4731 19.7801 31.3693 18.4713 32.5099C17.3236 33.508 16.1356 34.3023 14.5851 33.3654C14.0616 33.0599 13.5582 32.7136 13.1152 32.3063C11.6856 31.0231 10.0344 30.6564 8.16181 30.9823C6.85298 31.2268 5.78578 30.575 5.32266 29.2918C5.02062 28.4771 4.94008 27.5198 4.45682 26.8273C3.7118 25.7478 2.80569 24.6886 1.77876 23.9146C0.067223 22.6518 -0.3959 21.8778 0.449803 19.9021C1.31564 17.8653 1.31564 15.9507 0.449803 13.9139C-0.3959 11.9586 -0.0938634 11.1235 1.73849 10.0236C3.57085 8.90339 4.71859 7.39616 5.14144 5.23715C5.50388 3.38366 6.26904 2.75225 8.1014 2.91519C10.4573 3.11887 12.4105 2.48746 14.1824 0.898755C15.5114 -0.302958 16.5182 -0.302958 17.8673 0.919123C19.6392 2.5282 21.6125 3.11887 23.9483 2.91519C25.7001 2.77261 26.3847 3.26145 26.7471 4.99273C27.2505 7.33505 28.4385 9.0256 30.5125 10.2069C32.063 11.1031 32.3449 12.0197 31.62 13.6491C30.6535 15.8489 30.6535 17.9061 31.5998 20.1058C32.3449 21.8371 32.0227 22.7333 30.3917 23.6906C28.4184 24.8719 27.3109 26.5828 26.7673 28.803C26.2639 30.6972 25.6799 30.9823 22.7602 30.9212ZM28.7406 16.8877C28.7204 9.90143 22.9817 3.9947 16.196 3.9947C8.98737 3.9947 3.10773 9.71811 3.148 16.8062C3.18827 24.0572 8.64506 29.9232 16.196 29.8417C23.1227 29.7603 28.66 24.1998 28.7406 16.8877Z"
                      fill="#E5097F"/>
                <path d="M29.0829 50.3523C27.1096 49.6802 25.2772 49.0895 23.465 48.4174C22.72 48.1322 22.2569 48.2952 21.7132 48.8451C20.344 50.1894 18.9345 51.4726 17.4041 52.8983C16.0953 46.6454 14.8268 40.5349 13.4777 34.2005C15.6926 35.8299 17.4847 35.1374 19.1559 33.6302C20.3037 32.571 21.5924 32.0415 23.1831 32.2655C23.8073 32.347 24.4517 32.2859 25.2772 32.2859C26.5256 38.213 27.7942 44.2216 29.0829 50.3523Z"
                      fill="#E5097F"/>
                <path d="M6.63152 32.3264C7.87994 32.3264 9.04782 32.2857 10.1956 32.3264C11.2628 32.3672 11.8266 32.8967 12.048 33.9559C13.075 38.8238 14.1824 43.6714 15.0483 48.5801C15.2899 49.9041 14.8066 51.3706 14.6456 53C12.9542 51.4317 11.4641 50.0874 10.0345 48.682C9.59148 48.2542 9.2089 48.1524 8.62496 48.3764C6.77247 49.069 4.89985 49.6596 2.846 50.3522C4.11455 44.2825 5.36297 38.3146 6.63152 32.3264Z"
                      fill="#E5097F"/>
                <path d="M16.035 5.6239C22.3173 5.70538 27.3513 10.8381 27.1499 17.1115C26.9486 23.7718 22.0757 27.8658 16.9612 28.2324C9.20894 28.762 4.63812 22.6108 4.7388 16.7652C4.85961 10.5326 9.93383 5.52206 16.035 5.6239ZM5.32274 16.8874C5.32274 22.5701 9.59152 27.764 16.1961 27.7029C21.9347 27.6418 26.6063 23.0386 26.6264 16.7856C26.6465 10.9807 21.8341 6.19421 15.9746 6.15347C10.1553 6.1331 5.32274 10.9807 5.32274 16.8874Z"
                      fill="#E5097F"/>
                <path d="M11.2225 23.8127C11.3836 22.4073 11.4842 21.1241 11.6655 19.8613C11.7863 19.0262 11.6655 18.3745 11.0413 17.7634C10.115 16.8469 9.26931 15.8285 8.28266 14.7082C9.79284 14.3823 11.2023 14.1175 12.5514 13.7509C12.9944 13.6287 13.4777 13.2621 13.7395 12.8547C14.5046 11.6734 15.1691 10.4309 15.9544 9.06626C16.6994 10.3902 17.384 11.5308 18.0082 12.7121C18.3304 13.3232 18.713 13.6898 19.4379 13.812C20.7668 14.0157 22.0555 14.362 23.5456 14.6878C22.9616 15.3804 22.4985 16.0932 21.8944 16.6024C20.4044 17.8449 19.901 19.3521 20.3843 21.2463C20.5856 22.0203 20.5655 22.8554 20.6662 23.7924C19.4379 23.2424 18.3103 22.8147 17.2632 22.224C16.337 21.7148 15.5517 21.7555 14.6456 22.2444C13.5784 22.7943 12.4709 23.2424 11.2225 23.8127Z"
                      fill="#E5097F"/>
            </svg>
        </g>
    </symbol>
    <symbol id="login" viewBox="0 0 20 20">
        <svg xmlns="http://www.w3.org/2000/svg" width="20" height="20" viewBox="0 0 20 20">
            <path d="M7.95 9H0C0.5 3.947 4.764 0 9.95 0C15.473 0 19.95 4.477 19.95 10C19.95 15.523 15.473 20 9.95 20C4.765 20 0.501 16.053 0 11H7.95V14L12.95 10L7.95 6V9Z"/>
        </svg>
    </symbol>
    <symbol id="find" viewBox="0 0 24 24">
        <svg width="24" height="24" viewBox="0 0 24 24" xmlns="http://www.w3.org/2000/svg">
            <path d="M23.6736 20.7495L18.9998 16.0766C18.7889 15.8656 18.5029 15.7485 18.2029 15.7485H17.4388C18.7326 14.0939 19.5014 12.0129 19.5014 9.74905C19.5014 4.36364 15.137 0 9.75071 0C4.36438 0 0 4.36364 0 9.74905C0 15.1345 4.36438 19.4981 9.75071 19.4981C12.0149 19.4981 14.0963 18.7294 15.7512 17.4358V18.1998C15.7512 18.4998 15.8683 18.7857 16.0793 18.9966L20.7531 23.6696C21.1937 24.1101 21.9063 24.1101 22.3423 23.6696L23.6689 22.3431C24.1096 21.9025 24.1096 21.1901 23.6736 20.7495ZM9.75071 15.7485C6.43641 15.7485 3.75027 13.0675 3.75027 9.74905C3.75027 6.43531 6.43172 3.74963 9.75071 3.74963C13.065 3.74963 15.7512 6.43062 15.7512 9.74905C15.7512 13.0628 13.0697 15.7485 9.75071 15.7485Z"/>
        </svg>
    </symbol>
    <symbol id="order" viewBox="0 0 32 53">
        <svg width="32" height="53" viewBox="0 0 32 53" xmlns="http://www.w3.org/2000/svg">
            <path d="M22.7602 30.9212C21.1695 30.4731 19.7801 31.3693 18.4713 32.5099C17.3236 33.508 16.1356 34.3023 14.5851 33.3654C14.0616 33.0599 13.5582 32.7136 13.1152 32.3063C11.6856 31.0231 10.0344 30.6564 8.16181 30.9823C6.85298 31.2268 5.78578 30.575 5.32266 29.2918C5.02062 28.4771 4.94008 27.5198 4.45682 26.8273C3.7118 25.7478 2.80569 24.6886 1.77876 23.9146C0.067223 22.6518 -0.3959 21.8778 0.449803 19.9021C1.31564 17.8653 1.31564 15.9507 0.449803 13.9139C-0.3959 11.9586 -0.0938634 11.1235 1.73849 10.0236C3.57085 8.90339 4.71859 7.39616 5.14144 5.23715C5.50388 3.38366 6.26904 2.75225 8.1014 2.91519C10.4573 3.11887 12.4105 2.48746 14.1824 0.898755C15.5114 -0.302958 16.5182 -0.302958 17.8673 0.919123C19.6392 2.5282 21.6125 3.11887 23.9483 2.91519C25.7001 2.77261 26.3847 3.26145 26.7471 4.99273C27.2505 7.33505 28.4385 9.0256 30.5125 10.2069C32.063 11.1031 32.3449 12.0197 31.62 13.6491C30.6535 15.8489 30.6535 17.9061 31.5998 20.1058C32.3449 21.8371 32.0227 22.7333 30.3917 23.6906C28.4184 24.8719 27.3109 26.5828 26.7673 28.803C26.2639 30.6972 25.6799 30.9823 22.7602 30.9212ZM28.7406 16.8877C28.7204 9.90143 22.9817 3.9947 16.196 3.9947C8.98737 3.9947 3.10773 9.71811 3.148 16.8062C3.18827 24.0572 8.64506 29.9232 16.196 29.8417C23.1227 29.7603 28.66 24.1998 28.7406 16.8877Z" />
            <path d="M29.0829 50.3523C27.1096 49.6802 25.2772 49.0895 23.465 48.4174C22.72 48.1322 22.2569 48.2952 21.7132 48.8451C20.344 50.1894 18.9345 51.4726 17.4041 52.8983C16.0953 46.6454 14.8268 40.5349 13.4777 34.2005C15.6926 35.8299 17.4847 35.1374 19.1559 33.6302C20.3037 32.571 21.5924 32.0415 23.1831 32.2655C23.8073 32.347 24.4517 32.2859 25.2772 32.2859C26.5256 38.213 27.7942 44.2216 29.0829 50.3523Z" />
            <path d="M6.63152 32.3264C7.87994 32.3264 9.04782 32.2857 10.1956 32.3264C11.2628 32.3672 11.8266 32.8967 12.048 33.9559C13.075 38.8238 14.1824 43.6714 15.0483 48.5801C15.2899 49.9041 14.8066 51.3706 14.6456 53C12.9542 51.4317 11.4641 50.0874 10.0345 48.682C9.59148 48.2542 9.2089 48.1524 8.62496 48.3764C6.77247 49.069 4.89985 49.6596 2.846 50.3522C4.11455 44.2825 5.36297 38.3146 6.63152 32.3264Z" />
            <path d="M16.035 5.6239C22.3173 5.70538 27.3513 10.8381 27.1499 17.1115C26.9486 23.7718 22.0757 27.8658 16.9612 28.2324C9.20894 28.762 4.63812 22.6108 4.7388 16.7652C4.85961 10.5326 9.93383 5.52206 16.035 5.6239ZM5.32274 16.8874C5.32274 22.5701 9.59152 27.764 16.1961 27.7029C21.9347 27.6418 26.6063 23.0386 26.6264 16.7856C26.6465 10.9807 21.8341 6.19421 15.9746 6.15347C10.1553 6.1331 5.32274 10.9807 5.32274 16.8874Z" />
            <path d="M11.2225 23.8127C11.3836 22.4073 11.4842 21.1241 11.6655 19.8613C11.7863 19.0262 11.6655 18.3745 11.0413 17.7634C10.115 16.8469 9.26931 15.8285 8.28266 14.7082C9.79284 14.3823 11.2023 14.1175 12.5514 13.7509C12.9944 13.6287 13.4777 13.2621 13.7395 12.8547C14.5046 11.6734 15.1691 10.4309 15.9544 9.06626C16.6994 10.3902 17.384 11.5308 18.0082 12.7121C18.3304 13.3232 18.713 13.6898 19.4379 13.812C20.7668 14.0157 22.0555 14.362 23.5456 14.6878C22.9616 15.3804 22.4985 16.0932 21.8944 16.6024C20.4044 17.8449 19.901 19.3521 20.3843 21.2463C20.5856 22.0203 20.5655 22.8554 20.6662 23.7924C19.4379 23.2424 18.3103 22.8147 17.2632 22.224C16.337 21.7148 15.5517 21.7555 14.6456 22.2444C13.5784 22.7943 12.4709 23.2424 11.2225 23.8127Z" />
        </svg>
    </symbol>
    <symbol id="delivery" viewBox="0 0 44 50">
        <svg width="44" height="44" viewBox="0 0 44 44"  xmlns="http://www.w3.org/2000/svg">
            <path d="M4.06264 16.0914C4.06264 16.8555 4.07749 17.4874 4.06264 18.1046C4.04778 19.0598 3.61701 19.4713 2.65148 19.5007C2.17615 19.5154 1.71566 19.5154 1.24033 19.5007C0.467909 19.4566 0.0371356 19.0598 0.0222814 18.2956C-0.00742712 16.5763 -0.00742712 14.8716 0.0222814 13.1523C0.0371356 12.3734 0.512471 11.9473 1.29975 11.9179C1.81964 11.9032 2.33954 11.9032 2.85944 11.9179C3.54274 11.9473 4.12205 12.3441 4.01807 12.9906C3.81011 14.3132 4.6271 14.7394 5.59262 15.1362C5.88971 15.2537 6.17194 15.4007 6.51359 15.5623C6.87009 13.5491 7.19688 11.5946 7.53853 9.65481C8.01386 6.93618 8.4892 4.20286 8.97939 1.48423C9.18735 0.308601 9.57356 0 10.7768 0C18.4267 0 26.0766 0 33.7266 0C34.7812 0 35.1971 0.308601 35.3754 1.38136C36.1775 6.11325 36.9499 10.8451 37.7224 15.577C37.7521 15.724 37.7669 15.8562 37.8263 16.1207C38.4948 15.7974 39.1038 15.5182 39.698 15.1949C39.8317 15.1215 39.9208 14.8276 39.9208 14.6365C39.9505 14.1516 39.9208 13.6519 39.9356 13.167C39.9505 12.4322 40.3961 11.9767 41.1091 11.9032C41.1388 11.9032 41.1537 11.9032 41.1834 11.9032C43.5452 11.8885 44.08 11.7268 43.9908 14.4455C43.9463 15.6652 43.9908 16.8996 43.976 18.1193C43.9611 19.0745 43.5304 19.5007 42.5648 19.5154C42.1192 19.5301 41.6736 19.5301 41.228 19.5154C40.3813 19.486 39.9653 19.0598 39.9356 18.2369C39.9208 17.8254 39.9356 17.4139 39.9356 16.8261C39.2969 17.1494 38.7473 17.3845 38.2274 17.6931C38.0937 17.7666 38.0343 18.0605 38.064 18.2516C38.5393 22.6895 38.6433 27.1275 38.6285 31.5949C38.6136 33.9314 37.7818 36.0035 36.9351 38.0755C36.6083 38.8838 35.8359 39.1336 34.9743 39.1336C32.9987 39.1189 31.0082 39.1336 29.0326 39.1336C22.5413 39.1336 16.0649 39.1336 9.57356 39.1336C7.9693 39.1336 7.6128 38.7515 6.9295 37.3114C5.28068 33.8874 5.5035 30.2576 5.62233 26.6426C5.71146 23.6888 6.00854 20.7351 6.24621 17.7813C6.29077 17.3111 6.15708 17.0612 5.71146 16.8996C5.19156 16.6645 4.70137 16.3853 4.06264 16.0914ZM22.1848 20.1179C26.6411 20.1179 31.0974 20.1179 35.5536 20.1179C36.6826 20.1179 37.0539 19.7211 36.9054 18.6483C36.4597 15.6505 35.9993 12.6527 35.5388 9.65481C35.4051 8.78779 35.1229 8.56736 34.2613 8.56736C26.1955 8.56736 18.1296 8.56736 10.0489 8.56736C9.2022 8.56736 8.90512 8.81718 8.77143 9.66951C8.29609 12.6233 7.83561 15.5623 7.37513 18.5161C7.18203 19.7652 7.49397 20.1326 8.77143 20.1326C13.2277 20.1179 17.6988 20.1179 22.1848 20.1179ZM31.0974 33.8139C32.5085 33.6375 34.0088 33.52 35.4645 33.2408C36.7568 32.9909 37.5144 32.0798 37.6926 30.8013C37.7966 30.0813 37.7521 29.3465 37.7372 28.6117C37.7075 27.3333 36.534 26.672 35.4051 27.2745C34.5584 27.7153 33.7117 28.1562 32.865 28.6117C32.3303 28.9057 31.8846 29.2436 32.1372 29.9931C32.2263 30.2723 32.1669 30.6397 32.0777 30.9336C31.7807 31.8741 31.439 32.8293 31.0974 33.8139ZM13.4505 33.7845C12.2919 32.3737 11.8314 30.9042 11.8314 29.2877C11.8314 29.1114 11.6234 28.8616 11.46 28.7587C10.5688 28.2444 9.64783 27.7741 8.74172 27.2892C7.62765 26.7161 6.42446 27.4067 6.39475 28.6411C6.3799 29.273 6.36504 29.9196 6.40961 30.5515C6.49873 31.9623 7.46426 33.0938 8.86056 33.2995C10.3163 33.5053 11.8017 33.6082 13.4505 33.7845ZM13.1089 30.4046C14.7725 30.4046 16.3619 30.4046 17.9662 30.4046C19.7636 30.4046 21.5609 30.3752 23.3731 30.3752C25.6756 30.3752 27.9631 30.4046 30.2655 30.4046C31.0231 30.4046 31.1122 30.2282 30.9191 29.3612C24.9923 29.3612 19.0506 29.3612 13.0495 29.3612C13.0495 29.6698 13.0792 29.9343 13.1089 30.4046ZM30.5775 31.6243C24.8437 31.6243 19.1991 31.6243 13.5099 31.6243C13.6733 32.2856 13.9259 32.6236 14.6686 32.6236C19.5853 32.5942 24.5021 32.5942 29.4337 32.6236C30.1467 32.6236 30.4289 32.3003 30.5775 31.6243ZM15.337 33.8286C18.085 35.7978 26.8342 35.739 28.5573 33.8286C24.1901 33.8286 19.8527 33.8286 15.337 33.8286Z" />
            <path d="M32.8502 40.3533C34.2167 40.1329 35.6428 40.5884 36.9202 39.7802C38.1977 38.9866 38.3017 37.5465 38.985 36.2386C38.985 38.34 39.0147 40.2651 38.9701 42.1902C38.9552 43.263 38.2125 43.9536 37.1133 43.983C36.2666 43.9977 35.4348 44.0124 34.5881 43.983C33.6671 43.9536 32.9393 43.3658 32.8502 42.4841C32.7907 41.7934 32.8502 41.0881 32.8502 40.3533Z" />
            <path d="M11.5789 40.3092C11.5789 41.0881 11.6234 41.7934 11.564 42.4841C11.5046 43.263 10.7619 43.9389 9.95977 43.9683C8.99424 44.0124 8.02872 43.9977 7.06319 43.9536C6.17194 43.9096 5.47379 43.2483 5.44408 42.3372C5.39952 40.6325 5.42923 38.9132 5.56291 37.1644C5.6966 37.5024 5.83029 37.8551 5.96398 38.1931C6.51359 39.5304 7.58309 40.2651 9.05366 40.2945C9.8855 40.3092 10.7025 40.3092 11.5789 40.3092Z" />
        </svg>
    </symbol>
    <symbol id="providers" viewBox="0 0 41 38">
        <svg width="41" height="38" viewBox="0 0 41 38" xmlns="http://www.w3.org/2000/svg">
            <path d="M13.9476 33.6126C13.9476 34.7407 13.9476 35.8688 13.9476 37.0596C12.7723 36.7149 11.701 36.2553 10.7337 35.5763C10.6505 35.5137 10.5777 35.3779 10.5777 35.2734C10.6297 33.4664 10.3905 31.6489 10.8481 29.8732C11.2746 28.1915 12.3355 27.0425 13.8748 26.3009C15.0917 25.716 16.4022 25.4548 17.7231 25.2982C17.8791 25.2773 18.0663 25.3295 18.2223 25.4026C19.7408 26.0502 21.249 26.0607 22.7571 25.4026C22.9131 25.3399 23.0899 25.2773 23.2563 25.2982C24.6188 25.4548 25.9605 25.716 27.1982 26.3427C28.904 27.1992 29.8816 28.6093 30.0376 30.479C30.1833 32.1085 30.1417 33.7484 30.1625 35.3779C30.1625 35.5137 30.0584 35.733 29.944 35.7852C29.0184 36.2448 28.0823 36.6835 27.0526 37.1745C27.0526 35.8792 27.0526 34.7407 27.0526 33.6126C27.011 33.6022 26.9694 33.6022 26.9278 33.5917C26.8654 33.9155 26.803 34.2393 26.751 34.5631C26.6262 35.3361 26.491 36.1091 26.387 36.882C26.3454 37.1745 26.2206 37.3207 25.9293 37.3938C23.9636 37.843 21.9562 38.0832 19.9489 37.9683C18.3471 37.8743 16.7558 37.5923 15.1645 37.4147C14.7692 37.3729 14.634 37.164 14.582 36.788C14.4364 35.7226 14.2492 34.6676 14.0724 33.6126C14.0308 33.6126 13.9892 33.6126 13.9476 33.6126Z"/>
            <path d="M37.3285 30.6566C37.3285 29.4554 37.3285 28.3169 37.3285 27.1888C37.2869 27.1888 37.2453 27.1784 37.2141 27.1784C37.0893 27.8782 36.9749 28.578 36.8501 29.2883C36.8189 29.4763 36.7877 29.6643 36.7565 29.8524C36.5692 30.9387 36.5692 30.97 35.4668 31.1476C34.2083 31.346 32.9394 31.4923 31.6081 31.6698C31.4728 27.3246 29.1535 24.9953 25.17 24.1388C26.6469 22.384 27.0525 21.0783 27.1773 19.0519C27.7078 18.8952 28.207 18.8639 28.7686 19.1041C30.0687 19.6473 31.4104 19.6577 32.7209 19.125C33.1786 18.9475 33.605 18.9057 34.0835 18.9684C35.6436 19.1877 37.1309 19.6055 38.431 20.5247C40.0951 21.705 40.636 23.4494 40.6984 25.3922C40.7296 26.5099 40.7088 27.6171 40.6984 28.7347C40.6984 28.8914 40.6568 29.1107 40.5424 29.1839C39.5647 29.8524 38.5142 30.3328 37.3285 30.6566Z" />
            <path d="M15.8924 24.1389C11.8361 25.0372 9.42314 27.3247 9.14232 31.6595C7.81101 31.4715 6.53171 31.3148 5.26281 31.0955C4.38915 30.9388 4.39955 30.897 4.25394 29.9987C4.09792 29.0586 3.94191 28.1186 3.68189 27.1889C3.68189 28.3275 3.68189 29.466 3.68189 30.6777C2.465 30.3434 1.42492 29.8525 0.45764 29.2049C0.374434 29.1422 0.312029 28.996 0.312029 28.902C0.353632 27.2725 0.291227 25.6221 0.499243 24.0136C0.800867 21.7156 2.28818 20.3055 4.42035 19.6056C5.37722 19.2923 6.3965 19.1356 7.39498 18.9476C7.58219 18.9058 7.81101 18.9685 7.98783 19.0416C9.41274 19.6474 10.8376 19.637 12.2938 19.1356C12.7722 18.9685 13.3026 18.9789 13.8747 18.9058C13.8435 20.9635 14.4155 22.6766 15.8924 24.1389Z" />
            <path d="M15.2997 19.4177C15.2165 16.6497 17.4943 14.2264 20.2609 14.1429C23.2563 14.0593 25.6589 16.2737 25.6901 19.261C25.7109 22.2275 23.6308 24.3688 20.7809 24.5673C18.0975 24.7448 15.2997 22.6767 15.2997 19.4177Z" />
            <path d="M15.4037 12.9938C15.4037 15.8767 13.0947 18.1851 10.2137 18.1851C7.34305 18.1851 5.03407 15.8558 5.03407 12.9625C5.03407 10.0587 7.36385 7.72937 10.2657 7.73981C13.1259 7.7607 15.4037 10.0796 15.4037 12.9938Z" />
            <path d="M35.9555 12.858C36.0387 15.7201 33.7609 18.1225 30.8903 18.1851C28.1132 18.2478 25.6691 16.0021 25.5858 13.3072C25.4922 10.2572 27.666 7.83385 30.5782 7.75028C33.5113 7.66672 35.8723 9.90202 35.9555 12.858Z" />
            <path d="M24.0676 5.47298C24.078 7.50982 22.5283 9.10795 20.521 9.11839C18.4408 9.12884 16.8391 7.56205 16.8287 5.50432C16.8183 3.4466 18.4096 1.84847 20.4898 1.84847C22.4867 1.83802 24.0572 3.43615 24.0676 5.47298Z" />
            <path d="M6.81268 1.84858C9.12166 1.89036 10.7754 3.94809 10.3282 6.20427C10.2657 6.51763 10.1721 6.67431 9.80811 6.6952C8.18559 6.78921 6.81268 7.45771 5.68939 8.63803C5.47097 8.86782 5.30456 8.84693 5.06534 8.72159C3.57803 7.93819 2.81877 6.20427 3.2452 4.56436C3.68203 2.92445 5.13815 1.81725 6.81268 1.84858Z" />
            <path d="M35.5292 8.85756C34.5411 7.7608 33.3346 7.04008 31.8681 6.75805C31.7537 6.73716 31.6289 6.71627 31.5041 6.70583C30.6928 6.62226 30.6928 6.62226 30.5888 5.85976C30.36 4.0945 31.6393 2.29791 33.4178 1.91143C35.342 1.50407 37.2141 2.6426 37.7238 4.5332C38.2126 6.34024 37.2453 8.25173 35.5292 8.85756Z"/>
            <path d="M2.18417 15.5217C2.18417 16.2842 2.18417 17.0467 2.18417 17.9554C1.44571 17.6003 0.790462 17.2869 0.135211 16.9631C0.052004 16.9214 0 16.7647 0 16.6602C0.0104008 15.6052 -0.0104008 14.5398 0.0624049 13.4849C0.187215 11.6465 1.2273 10.5288 2.95383 10.0275C3.54668 9.84989 4.16033 9.74544 4.85718 9.58876C3.26585 12.7955 3.76509 15.5321 6.31329 17.945C5.33562 18.1852 4.38914 18.509 3.34906 18.2061C2.87062 18.0703 2.6106 17.9032 2.569 17.3809C2.517 16.7647 2.38179 16.1484 2.28818 15.5321C2.25698 15.5321 2.22577 15.5321 2.18417 15.5217Z" />
            <path d="M38.6909 15.5318C38.5869 16.1899 38.4621 16.8479 38.3788 17.5164C38.3372 17.8925 38.1708 18.0491 37.7964 18.164C36.7251 18.4983 35.7162 18.2372 34.6554 17.9342C35.8515 16.9106 36.6523 15.6572 36.9331 14.1008C37.214 12.5445 36.9227 11.103 36.1531 9.72425C38.8157 9.47356 40.8959 11.3433 40.9791 14.059C40.9999 14.8947 40.9999 15.7303 40.9687 16.5659C40.9583 16.733 40.8334 16.9733 40.6982 17.0464C40.1054 17.3598 39.4917 17.6313 38.7949 17.9551C38.7949 17.0777 38.7949 16.3152 38.7949 15.5527C38.7637 15.5423 38.7325 15.5423 38.6909 15.5318Z" />
            <path d="M16.2979 14.6232C16.6827 13.1087 16.5163 11.6985 15.8819 10.2049C16.8387 10.0064 17.7228 9.81839 18.6173 9.65126C18.7525 9.63037 18.9085 9.74527 19.0541 9.79749C19.907 10.1317 20.8014 10.1944 21.6439 9.86017C22.1952 9.64081 22.7152 9.65126 23.256 9.7766C23.8489 9.92284 24.4417 10.1004 25.0866 10.278C24.4521 11.7194 24.3377 13.1087 24.6913 14.6128C21.8623 12.5237 19.1061 12.5133 16.2979 14.6232Z" />
            <path d="M13.6564 5.15963C12.1795 5.13874 11.0978 4.0211 11.1186 2.51697C11.1186 1.10686 12.2939 -0.0316808 13.7292 -0.000344872C15.1541 0.030991 16.267 1.19042 16.2566 2.63187C16.2358 4.07332 15.1021 5.18052 13.6564 5.15963Z" />
            <path d="M29.9856 2.56935C29.9856 4.05259 28.8623 5.17023 27.3958 5.17023C25.9605 5.17023 24.8476 4.0317 24.8476 2.5798C24.8476 1.13835 25.9813 -0.000192918 27.4166 -0.000192918C28.8415 -0.000192918 29.9856 1.13835 29.9856 2.56935Z" />
            <path d="M29.455 5.55655C29.5278 6.04747 29.5798 6.37128 29.6214 6.66375C28.935 6.95622 28.2069 7.17557 27.6037 7.56204C26.9484 7.9903 26.4076 8.59613 25.7939 9.0975C25.6795 9.19151 25.4715 9.29596 25.3467 9.26463C24.8683 9.12884 24.4002 8.94082 23.8802 8.74236C24.6291 7.86496 25.0867 6.87265 25.1803 5.57744C25.6587 5.61922 26.0956 5.68189 26.5428 5.70278C27.1044 5.72367 27.6661 5.73412 28.2277 5.71323C28.6334 5.70278 29.0286 5.61922 29.455 5.55655Z" />
            <path d="M15.7259 5.64043C15.8195 6.83119 16.2252 7.86528 17.0468 8.74268C16.4644 8.94114 15.9131 9.12916 15.3515 9.32762C14.353 7.96973 13.0217 7.10277 11.3472 6.74763C11.3888 6.45516 11.42 6.18359 11.472 5.91201C11.524 5.65088 12.0961 5.44197 12.4913 5.5882C13.313 5.91201 14.093 5.90156 14.9043 5.57776C15.1227 5.50464 15.4347 5.61954 15.7259 5.64043Z" />
        </svg>
    </symbol>
    <symbol id="waranty" viewBox="0 0 36 47">
        <svg width="36" height="47" viewBox="0 0 36 47" xmlns="http://www.w3.org/2000/svg">
            <path d="M0.0447928 7.75333C7.05813 7.54582 13.4963 6.07439 18.042 0C20.3055 3.32016 23.5154 5.28208 27.356 6.50827C26.7252 7.31945 26.15 8.13062 25.4821 8.86634C25.3151 9.03612 24.8327 9.13045 24.6286 9.01726C22.7918 8.0363 20.9364 7.09307 19.2109 5.94234C17.9863 5.13116 18.0976 5.03684 16.9288 5.88574C15.1105 7.1874 13.1809 8.30041 11.0658 9.13045C8.59809 10.0737 6.07478 10.5642 3.40303 10.8849C3.38448 11.0735 3.36592 11.3565 3.36592 11.6206C3.36592 16.2424 3.34737 20.8642 3.36592 25.486C3.38448 28.2402 3.90398 30.919 5.31407 33.2771C6.22321 34.8051 7.57764 36.0313 8.70942 37.4273C9.93397 38.9176 11.5481 39.9174 13.1252 40.9172C14.5724 41.8227 16.1124 42.615 17.6709 43.2564C18.1533 43.4451 18.9697 43.1055 19.5077 42.8037C21.5858 41.6341 23.7009 40.5399 25.5934 39.0308C28.2651 36.8991 30.3988 34.3712 31.6605 31.1831C32.2356 29.7305 32.3841 28.0705 32.6438 26.5047C32.7551 25.8633 32.7551 25.1653 32.6438 24.5239C32.2542 22.3922 33.3489 20.9397 34.6662 19.5437C35.0929 19.1098 35.4454 18.6193 35.9278 18.0345C35.9464 18.4307 35.9835 18.7136 35.9835 19.0155C35.9835 21.8829 36.0206 24.7314 35.9835 27.5989C35.965 29.5985 35.5939 31.6359 34.5734 33.2959C32.4954 36.6727 30.2689 39.9929 26.7808 42.1057C24.4802 43.5017 22.198 44.8976 19.8788 46.2559C19.3407 46.5766 18.7285 46.7464 18.1347 46.9728C18.0049 47.0293 17.8193 46.9916 17.6709 46.9162C14.758 45.5768 11.8636 44.1997 9.28459 42.2377C6.39019 40.0306 3.84832 37.5027 2.12282 34.1826C1.60331 33.1639 0.657068 32.3904 0.527192 31.1265C0.378761 29.7494 0.026239 28.3723 0.00768524 26.9952C-0.0108686 20.751 0.00768524 14.488 0.026239 8.24381C0.026239 8.11176 0.026239 7.97971 0.0447928 7.75333Z" />
            <path d="M18.0049 25.2785C22.2166 20.053 26.3912 14.8653 30.64 9.56433C31.8831 10.583 33.1633 11.6206 34.4435 12.677C29.1372 19.2984 23.8122 25.9199 18.4131 32.6357C14.758 29.1646 11.0843 25.6935 7.41065 22.2036C8.57954 20.9208 9.69277 19.7135 10.7689 18.5439C13.1809 20.7699 15.5372 22.977 18.0049 25.2785Z"/>
        </svg>
    </symbol>
</svg>
