<svg width="32" height="53" viewBox="0 0 32 53" fill="none" xmlns="http://www.w3.org/2000/svg">
<path d="M22.7602 30.9212C21.1695 30.4731 19.7801 31.3693 18.4713 32.5099C17.3236 33.508 16.1356 34.3023 14.5851 33.3654C14.0616 33.0599 13.5582 32.7136 13.1152 32.3063C11.6856 31.0231 10.0344 30.6564 8.16181 30.9823C6.85298 31.2268 5.78578 30.575 5.32266 29.2918C5.02062 28.4771 4.94008 27.5198 4.45682 26.8273C3.7118 25.7478 2.80569 24.6886 1.77876 23.9146C0.067223 22.6518 -0.3959 21.8778 0.449803 19.9021C1.31564 17.8653 1.31564 15.9507 0.449803 13.9139C-0.3959 11.9586 -0.0938634 11.1235 1.73849 10.0236C3.57085 8.90339 4.71859 7.39616 5.14144 5.23715C5.50388 3.38366 6.26904 2.75225 8.1014 2.91519C10.4573 3.11887 12.4105 2.48746 14.1824 0.898755C15.5114 -0.302958 16.5182 -0.302958 17.8673 0.919123C19.6392 2.5282 21.6125 3.11887 23.9483 2.91519C25.7001 2.77261 26.3847 3.26145 26.7471 4.99273C27.2505 7.33505 28.4385 9.0256 30.5125 10.2069C32.063 11.1031 32.3449 12.0197 31.62 13.6491C30.6535 15.8489 30.6535 17.9061 31.5998 20.1058C32.3449 21.8371 32.0227 22.7333 30.3917 23.6906C28.4184 24.8719 27.3109 26.5828 26.7673 28.803C26.2639 30.6972 25.6799 30.9823 22.7602 30.9212ZM28.7406 16.8877C28.7204 9.90143 22.9817 3.9947 16.196 3.9947C8.98737 3.9947 3.10773 9.71811 3.148 16.8062C3.18827 24.0572 8.64506 29.9232 16.196 29.8417C23.1227 29.7603 28.66 24.1998 28.7406 16.8877Z" fill="#E5097F"/>
<path d="M29.0829 50.3523C27.1096 49.6802 25.2772 49.0895 23.465 48.4174C22.72 48.1322 22.2569 48.2952 21.7132 48.8451C20.344 50.1894 18.9345 51.4726 17.4041 52.8983C16.0953 46.6454 14.8268 40.5349 13.4777 34.2005C15.6926 35.8299 17.4847 35.1374 19.1559 33.6302C20.3037 32.571 21.5924 32.0415 23.1831 32.2655C23.8073 32.347 24.4517 32.2859 25.2772 32.2859C26.5256 38.213 27.7942 44.2216 29.0829 50.3523Z" fill="#E5097F"/>
<path d="M6.63152 32.3264C7.87994 32.3264 9.04782 32.2857 10.1956 32.3264C11.2628 32.3672 11.8266 32.8967 12.048 33.9559C13.075 38.8238 14.1824 43.6714 15.0483 48.5801C15.2899 49.9041 14.8066 51.3706 14.6456 53C12.9542 51.4317 11.4641 50.0874 10.0345 48.682C9.59148 48.2542 9.2089 48.1524 8.62496 48.3764C6.77247 49.069 4.89985 49.6596 2.846 50.3522C4.11455 44.2825 5.36297 38.3146 6.63152 32.3264Z" fill="#E5097F"/>
<path d="M16.035 5.6239C22.3173 5.70538 27.3513 10.8381 27.1499 17.1115C26.9486 23.7718 22.0757 27.8658 16.9612 28.2324C9.20894 28.762 4.63812 22.6108 4.7388 16.7652C4.85961 10.5326 9.93383 5.52206 16.035 5.6239ZM5.32274 16.8874C5.32274 22.5701 9.59152 27.764 16.1961 27.7029C21.9347 27.6418 26.6063 23.0386 26.6264 16.7856C26.6465 10.9807 21.8341 6.19421 15.9746 6.15347C10.1553 6.1331 5.32274 10.9807 5.32274 16.8874Z" fill="#E5097F"/>
<path d="M11.2225 23.8127C11.3836 22.4073 11.4842 21.1241 11.6655 19.8613C11.7863 19.0262 11.6655 18.3745 11.0413 17.7634C10.115 16.8469 9.26931 15.8285 8.28266 14.7082C9.79284 14.3823 11.2023 14.1175 12.5514 13.7509C12.9944 13.6287 13.4777 13.2621 13.7395 12.8547C14.5046 11.6734 15.1691 10.4309 15.9544 9.06626C16.6994 10.3902 17.384 11.5308 18.0082 12.7121C18.3304 13.3232 18.713 13.6898 19.4379 13.812C20.7668 14.0157 22.0555 14.362 23.5456 14.6878C22.9616 15.3804 22.4985 16.0932 21.8944 16.6024C20.4044 17.8449 19.901 19.3521 20.3843 21.2463C20.5856 22.0203 20.5655 22.8554 20.6662 23.7924C19.4379 23.2424 18.3103 22.8147 17.2632 22.224C16.337 21.7148 15.5517 21.7555 14.6456 22.2444C13.5784 22.7943 12.4709 23.2424 11.2225 23.8127Z" fill="#E5097F"/>
</svg>
