<svg width="41" height="38" viewBox="0 0 41 38" fill="none" xmlns="http://www.w3.org/2000/svg">
<path d="M13.9476 33.6126C13.9476 34.7407 13.9476 35.8688 13.9476 37.0596C12.7723 36.7149 11.701 36.2553 10.7337 35.5763C10.6505 35.5137 10.5777 35.3779 10.5777 35.2734C10.6297 33.4664 10.3905 31.6489 10.8481 29.8732C11.2746 28.1915 12.3355 27.0425 13.8748 26.3009C15.0917 25.716 16.4022 25.4548 17.7231 25.2982C17.8791 25.2773 18.0663 25.3295 18.2223 25.4026C19.7408 26.0502 21.249 26.0607 22.7571 25.4026C22.9131 25.3399 23.0899 25.2773 23.2563 25.2982C24.6188 25.4548 25.9605 25.716 27.1982 26.3427C28.904 27.1992 29.8816 28.6093 30.0376 30.479C30.1833 32.1085 30.1417 33.7484 30.1625 35.3779C30.1625 35.5137 30.0584 35.733 29.944 35.7852C29.0184 36.2448 28.0823 36.6835 27.0526 37.1745C27.0526 35.8792 27.0526 34.7407 27.0526 33.6126C27.011 33.6022 26.9694 33.6022 26.9278 33.5917C26.8654 33.9155 26.803 34.2393 26.751 34.5631C26.6262 35.3361 26.491 36.1091 26.387 36.882C26.3454 37.1745 26.2206 37.3207 25.9293 37.3938C23.9636 37.843 21.9562 38.0832 19.9489 37.9683C18.3471 37.8743 16.7558 37.5923 15.1645 37.4147C14.7692 37.3729 14.634 37.164 14.582 36.788C14.4364 35.7226 14.2492 34.6676 14.0724 33.6126C14.0308 33.6126 13.9892 33.6126 13.9476 33.6126Z" fill="#E5097F"/>
<path d="M37.3285 30.6566C37.3285 29.4554 37.3285 28.3169 37.3285 27.1888C37.2869 27.1888 37.2453 27.1784 37.2141 27.1784C37.0893 27.8782 36.9749 28.578 36.8501 29.2883C36.8189 29.4763 36.7877 29.6643 36.7565 29.8524C36.5692 30.9387 36.5692 30.97 35.4668 31.1476C34.2083 31.346 32.9394 31.4923 31.6081 31.6698C31.4728 27.3246 29.1535 24.9953 25.17 24.1388C26.6469 22.384 27.0525 21.0783 27.1773 19.0519C27.7078 18.8952 28.207 18.8639 28.7686 19.1041C30.0687 19.6473 31.4104 19.6577 32.7209 19.125C33.1786 18.9475 33.605 18.9057 34.0835 18.9684C35.6436 19.1877 37.1309 19.6055 38.431 20.5247C40.0951 21.705 40.636 23.4494 40.6984 25.3922C40.7296 26.5099 40.7088 27.6171 40.6984 28.7347C40.6984 28.8914 40.6568 29.1107 40.5424 29.1839C39.5647 29.8524 38.5142 30.3328 37.3285 30.6566Z" fill="#E5097F"/>
<path d="M15.8924 24.1389C11.8361 25.0372 9.42314 27.3247 9.14232 31.6595C7.81101 31.4715 6.53171 31.3148 5.26281 31.0955C4.38915 30.9388 4.39955 30.897 4.25394 29.9987C4.09792 29.0586 3.94191 28.1186 3.68189 27.1889C3.68189 28.3275 3.68189 29.466 3.68189 30.6777C2.465 30.3434 1.42492 29.8525 0.45764 29.2049C0.374434 29.1422 0.312029 28.996 0.312029 28.902C0.353632 27.2725 0.291227 25.6221 0.499243 24.0136C0.800867 21.7156 2.28818 20.3055 4.42035 19.6056C5.37722 19.2923 6.3965 19.1356 7.39498 18.9476C7.58219 18.9058 7.81101 18.9685 7.98783 19.0416C9.41274 19.6474 10.8376 19.637 12.2938 19.1356C12.7722 18.9685 13.3026 18.9789 13.8747 18.9058C13.8435 20.9635 14.4155 22.6766 15.8924 24.1389Z" fill="#E5097F"/>
<path d="M15.2997 19.4177C15.2165 16.6497 17.4943 14.2264 20.2609 14.1429C23.2563 14.0593 25.6589 16.2737 25.6901 19.261C25.7109 22.2275 23.6308 24.3688 20.7809 24.5673C18.0975 24.7448 15.2997 22.6767 15.2997 19.4177Z" fill="#E5097F"/>
<path d="M15.4037 12.9938C15.4037 15.8767 13.0947 18.1851 10.2137 18.1851C7.34305 18.1851 5.03407 15.8558 5.03407 12.9625C5.03407 10.0587 7.36385 7.72937 10.2657 7.73981C13.1259 7.7607 15.4037 10.0796 15.4037 12.9938Z" fill="#E5097F"/>
<path d="M35.9555 12.858C36.0387 15.7201 33.7609 18.1225 30.8903 18.1851C28.1132 18.2478 25.6691 16.0021 25.5858 13.3072C25.4922 10.2572 27.666 7.83385 30.5782 7.75028C33.5113 7.66672 35.8723 9.90202 35.9555 12.858Z" fill="#E5097F"/>
<path d="M24.0676 5.47298C24.078 7.50982 22.5283 9.10795 20.521 9.11839C18.4408 9.12884 16.8391 7.56205 16.8287 5.50432C16.8183 3.4466 18.4096 1.84847 20.4898 1.84847C22.4867 1.83802 24.0572 3.43615 24.0676 5.47298Z" fill="#E5097F"/>
<path d="M6.81268 1.84858C9.12166 1.89036 10.7754 3.94809 10.3282 6.20427C10.2657 6.51763 10.1721 6.67431 9.80811 6.6952C8.18559 6.78921 6.81268 7.45771 5.68939 8.63803C5.47097 8.86782 5.30456 8.84693 5.06534 8.72159C3.57803 7.93819 2.81877 6.20427 3.2452 4.56436C3.68203 2.92445 5.13815 1.81725 6.81268 1.84858Z" fill="#E5097F"/>
<path d="M35.5292 8.85756C34.5411 7.7608 33.3346 7.04008 31.8681 6.75805C31.7537 6.73716 31.6289 6.71627 31.5041 6.70583C30.6928 6.62226 30.6928 6.62226 30.5888 5.85976C30.36 4.0945 31.6393 2.29791 33.4178 1.91143C35.342 1.50407 37.2141 2.6426 37.7238 4.5332C38.2126 6.34024 37.2453 8.25173 35.5292 8.85756Z" fill="#E5097F"/>
<path d="M2.18417 15.5217C2.18417 16.2842 2.18417 17.0467 2.18417 17.9554C1.44571 17.6003 0.790462 17.2869 0.135211 16.9631C0.052004 16.9214 0 16.7647 0 16.6602C0.0104008 15.6052 -0.0104008 14.5398 0.0624049 13.4849C0.187215 11.6465 1.2273 10.5288 2.95383 10.0275C3.54668 9.84989 4.16033 9.74544 4.85718 9.58876C3.26585 12.7955 3.76509 15.5321 6.31329 17.945C5.33562 18.1852 4.38914 18.509 3.34906 18.2061C2.87062 18.0703 2.6106 17.9032 2.569 17.3809C2.517 16.7647 2.38179 16.1484 2.28818 15.5321C2.25698 15.5321 2.22577 15.5321 2.18417 15.5217Z" fill="#E5097F"/>
<path d="M38.6909 15.5318C38.5869 16.1899 38.4621 16.8479 38.3788 17.5164C38.3372 17.8925 38.1708 18.0491 37.7964 18.164C36.7251 18.4983 35.7162 18.2372 34.6554 17.9342C35.8515 16.9106 36.6523 15.6572 36.9331 14.1008C37.214 12.5445 36.9227 11.103 36.1531 9.72425C38.8157 9.47356 40.8959 11.3433 40.9791 14.059C40.9999 14.8947 40.9999 15.7303 40.9687 16.5659C40.9583 16.733 40.8334 16.9733 40.6982 17.0464C40.1054 17.3598 39.4917 17.6313 38.7949 17.9551C38.7949 17.0777 38.7949 16.3152 38.7949 15.5527C38.7637 15.5423 38.7325 15.5423 38.6909 15.5318Z" fill="#E5097F"/>
<path d="M16.2979 14.6232C16.6827 13.1087 16.5163 11.6985 15.8819 10.2049C16.8387 10.0064 17.7228 9.81839 18.6173 9.65126C18.7525 9.63037 18.9085 9.74527 19.0541 9.79749C19.907 10.1317 20.8014 10.1944 21.6439 9.86017C22.1952 9.64081 22.7152 9.65126 23.256 9.7766C23.8489 9.92284 24.4417 10.1004 25.0866 10.278C24.4521 11.7194 24.3377 13.1087 24.6913 14.6128C21.8623 12.5237 19.1061 12.5133 16.2979 14.6232Z" fill="#E5097F"/>
<path d="M13.6564 5.15963C12.1795 5.13874 11.0978 4.0211 11.1186 2.51697C11.1186 1.10686 12.2939 -0.0316808 13.7292 -0.000344872C15.1541 0.030991 16.267 1.19042 16.2566 2.63187C16.2358 4.07332 15.1021 5.18052 13.6564 5.15963Z" fill="#E5097F"/>
<path d="M29.9856 2.56935C29.9856 4.05259 28.8623 5.17023 27.3958 5.17023C25.9605 5.17023 24.8476 4.0317 24.8476 2.5798C24.8476 1.13835 25.9813 -0.000192918 27.4166 -0.000192918C28.8415 -0.000192918 29.9856 1.13835 29.9856 2.56935Z" fill="#E5097F"/>
<path d="M29.455 5.55655C29.5278 6.04747 29.5798 6.37128 29.6214 6.66375C28.935 6.95622 28.2069 7.17557 27.6037 7.56204C26.9484 7.9903 26.4076 8.59613 25.7939 9.0975C25.6795 9.19151 25.4715 9.29596 25.3467 9.26463C24.8683 9.12884 24.4002 8.94082 23.8802 8.74236C24.6291 7.86496 25.0867 6.87265 25.1803 5.57744C25.6587 5.61922 26.0956 5.68189 26.5428 5.70278C27.1044 5.72367 27.6661 5.73412 28.2277 5.71323C28.6334 5.70278 29.0286 5.61922 29.455 5.55655Z" fill="#E5097F"/>
<path d="M15.7259 5.64043C15.8195 6.83119 16.2252 7.86528 17.0468 8.74268C16.4644 8.94114 15.9131 9.12916 15.3515 9.32762C14.353 7.96973 13.0217 7.10277 11.3472 6.74763C11.3888 6.45516 11.42 6.18359 11.472 5.91201C11.524 5.65088 12.0961 5.44197 12.4913 5.5882C13.313 5.91201 14.093 5.90156 14.9043 5.57776C15.1227 5.50464 15.4347 5.61954 15.7259 5.64043Z" fill="#E5097F"/>
</svg>
