<svg width="36" height="47" viewBox="0 0 36 47" fill="none" xmlns="http://www.w3.org/2000/svg">
<path d="M0.0447928 7.75333C7.05813 7.54582 13.4963 6.07439 18.042 0C20.3055 3.32016 23.5154 5.28208 27.356 6.50827C26.7252 7.31945 26.15 8.13062 25.4821 8.86634C25.3151 9.03612 24.8327 9.13045 24.6286 9.01726C22.7918 8.0363 20.9364 7.09307 19.2109 5.94234C17.9863 5.13116 18.0976 5.03684 16.9288 5.88574C15.1105 7.1874 13.1809 8.30041 11.0658 9.13045C8.59809 10.0737 6.07478 10.5642 3.40303 10.8849C3.38448 11.0735 3.36592 11.3565 3.36592 11.6206C3.36592 16.2424 3.34737 20.8642 3.36592 25.486C3.38448 28.2402 3.90398 30.919 5.31407 33.2771C6.22321 34.8051 7.57764 36.0313 8.70942 37.4273C9.93397 38.9176 11.5481 39.9174 13.1252 40.9172C14.5724 41.8227 16.1124 42.615 17.6709 43.2564C18.1533 43.4451 18.9697 43.1055 19.5077 42.8037C21.5858 41.6341 23.7009 40.5399 25.5934 39.0308C28.2651 36.8991 30.3988 34.3712 31.6605 31.1831C32.2356 29.7305 32.3841 28.0705 32.6438 26.5047C32.7551 25.8633 32.7551 25.1653 32.6438 24.5239C32.2542 22.3922 33.3489 20.9397 34.6662 19.5437C35.0929 19.1098 35.4454 18.6193 35.9278 18.0345C35.9464 18.4307 35.9835 18.7136 35.9835 19.0155C35.9835 21.8829 36.0206 24.7314 35.9835 27.5989C35.965 29.5985 35.5939 31.6359 34.5734 33.2959C32.4954 36.6727 30.2689 39.9929 26.7808 42.1057C24.4802 43.5017 22.198 44.8976 19.8788 46.2559C19.3407 46.5766 18.7285 46.7464 18.1347 46.9728C18.0049 47.0293 17.8193 46.9916 17.6709 46.9162C14.758 45.5768 11.8636 44.1997 9.28459 42.2377C6.39019 40.0306 3.84832 37.5027 2.12282 34.1826C1.60331 33.1639 0.657068 32.3904 0.527192 31.1265C0.378761 29.7494 0.026239 28.3723 0.00768524 26.9952C-0.0108686 20.751 0.00768524 14.488 0.026239 8.24381C0.026239 8.11176 0.026239 7.97971 0.0447928 7.75333Z" fill="#E5097F"/>
<path d="M18.0049 25.2785C22.2166 20.053 26.3912 14.8653 30.64 9.56433C31.8831 10.583 33.1633 11.6206 34.4435 12.677C29.1372 19.2984 23.8122 25.9199 18.4131 32.6357C14.758 29.1646 11.0843 25.6935 7.41065 22.2036C8.57954 20.9208 9.69277 19.7135 10.7689 18.5439C13.1809 20.7699 15.5372 22.977 18.0049 25.2785Z" fill="#E5097F"/>
</svg>
